<?xml version="1.0" standalone="no"?>
<!DOCTYPE svg PUBLIC "-//W3C//DTD SVG 20010904//EN"
 "http://www.w3.org/TR/2001/REC-SVG-20010904/DTD/svg10.dtd">
<svg version="1.0" xmlns=""
 width="200.000000pt" height="50.000000pt" viewBox="0 0 200.000000 50.000000"
 preserveAspectRatio="xMidYMid meet">

<g transform="translate(0.000000,50.000000) scale(0.100000,-0.100000)"
fill="#000000" stroke="none">
<path d="M1457 455 c3 -8 9 -12 14 -9 12 7 11 11 -5 17 -10 4 -13 1 -9 -8z"/>
<path d="M39 447 c-16 -12 -24 -69 -20 -154 l1 -33 295 0 295 0 0 100 0 100
-277 0 c-207 -1 -282 -4 -294 -13z m101 -22 c7 -8 10 -25 6 -39 -3 -14 -2 -28
4 -31 5 -3 10 2 10 13 0 11 9 31 21 46 27 35 80 36 106 3 l18 -24 18 24 c18
23 69 32 93 15 16 -11 34 -48 34 -72 0 -34 -28 -77 -54 -84 -33 -8 -73 8 -80
32 -6 18 -9 18 -37 -10 -24 -24 -35 -29 -57 -24 -15 4 -33 16 -41 27 -14 20
-14 20 -36 -1 -17 -16 -33 -20 -60 -18 l-38 3 -3 69 c-2 38 -1 72 2 77 9 15
81 10 94 -6z m360 -12 l1 -28 17 28 c17 28 52 37 52 13 0 -7 -7 -19 -15 -26
-20 -17 -19 -33 5 -72 25 -41 25 -48 2 -48 -10 0 -25 11 -32 25 -7 14 -17 25
-22 25 -4 0 -8 -11 -8 -25 0 -18 -5 -25 -20 -25 -18 0 -20 7 -20 80 0 73 2 80
20 80 15 0 20 -7 20 -27z"/>
<path d="M86 401 c-4 -5 -2 -12 3 -15 5 -4 12 -2 15 3 4 5 2 12 -3 15 -5 4
-12 2 -15 -3z"/>
<path d="M208 385 c-13 -29 2 -75 25 -75 38 0 52 71 18 90 -27 14 -30 13 -43
-15z"/>
<path d="M358 399 c-20 -11 -23 -41 -8 -70 25 -46 74 7 52 56 -13 27 -19 29
-44 14z"/>
<path d="M84 339 c-8 -14 11 -33 25 -25 6 4 11 14 11 22 0 16 -26 19 -36 3z"/>
<path d="M1500 439 c0 -5 5 -7 10 -4 6 3 10 8 10 11 0 2 -4 4 -10 4 -5 0 -10
-5 -10 -11z"/>
<path d="M1454 407 c0 -14 7 -23 17 -23 17 0 20 26 4 38 -17 13 -23 9 -21 -15z"/>
<path d="M641 274 c0 -11 3 -14 6 -6 3 7 2 16 -1 19 -3 4 -6 -2 -5 -13z"/>
<path d="M20 130 c0 -93 1 -100 20 -100 16 0 20 7 20 34 0 50 16 52 46 6 19
-28 34 -40 50 -40 l24 0 -26 41 c-23 37 -24 42 -10 58 23 25 21 78 -3 91 -11
5 -42 10 -70 10 l-51 0 0 -100z m84 64 c32 -12 11 -64 -26 -64 -14 0 -18 8
-18 35 0 36 10 42 44 29z"/>
<path d="M225 200 c-56 -58 -32 -149 44 -170 66 -17 126 16 137 77 7 40 -10
88 -40 108 -11 8 -41 15 -66 15 -38 0 -51 -5 -75 -30z m106 -11 c29 -15 40
-52 27 -89 -25 -73 -110 -53 -116 28 -2 32 1 43 20 56 26 19 42 20 69 5z"/>
<path d="M428 198 c11 -18 29 -49 41 -68 11 -19 21 -49 21 -66 0 -18 6 -34 14
-37 20 -8 26 2 26 43 0 24 12 56 35 94 19 32 35 60 35 62 0 2 -11 4 -24 4 -18
0 -27 -9 -39 -39 -9 -22 -20 -42 -26 -45 -5 -3 -19 14 -31 39 -17 35 -27 45
-47 45 l-25 0 20 -32z"/>
<path d="M653 213 c-3 -10 -20 -55 -38 -100 -18 -45 -30 -84 -28 -87 10 -9 42
7 46 25 8 28 93 28 102 -1 4 -11 15 -20 26 -20 23 0 24 -4 -20 117 -25 68 -32
78 -55 81 -18 2 -28 -2 -33 -15z m54 -75 c13 -30 9 -38 -23 -38 -31 0 -34 9
-17 49 15 35 22 34 40 -11z"/>
<path d="M815 130 l0 -100 57 0 c67 0 88 17 26 22 l-43 3 -1 85 c-1 76 -4 85
-21 88 -18 3 -19 -4 -18 -98z"/>
<path d="M1015 213 c4 -10 13 -34 21 -53 38 -105 54 -131 75 -128 17 2 30 23
60 98 22 52 39 96 39 98 0 2 -10 2 -22 0 -18 -2 -27 -17 -47 -76 -28 -84 -36
-83 -66 11 -16 51 -24 63 -44 65 -20 3 -23 1 -16 -15z"/>
<path d="M1250 228 c-1 -2 -2 -47 -3 -101 -2 -95 -1 -97 21 -97 21 0 22 3 22
100 0 93 -1 100 -20 100 -11 0 -20 -1 -20 -2z"/>
<path d="M1340 130 l0 -100 60 0 c33 0 60 4 60 10 0 6 -18 10 -40 10 l-40 0 0
90 c0 83 -1 90 -20 90 -19 0 -20 -7 -20 -100z"/>
<path d="M1490 128 l0 -103 60 3 c67 4 81 19 23 24 l-38 3 -3 88 c-3 79 -5 87
-22 87 -19 0 -20 -7 -20 -102z"/>
<path d="M1667 135 c-20 -52 -37 -97 -37 -100 0 -15 40 -2 45 15 5 16 15 20
52 20 36 0 46 -4 50 -20 3 -13 14 -20 28 -20 l23 0 -33 83 c-18 45 -35 90 -38
100 -4 10 -16 17 -30 17 -20 0 -28 -12 -60 -95z m81 8 c13 -43 14 -40 -18 -45
-29 -4 -36 15 -21 55 14 37 26 34 39 -10z"/>
<path d="M1867 212 c-10 -10 -17 -31 -17 -46 0 -23 8 -30 45 -47 53 -24 58
-30 40 -55 -12 -17 -17 -18 -46 -7 -36 14 -44 11 -36 -12 5 -10 20 -15 51 -15
55 0 78 20 74 64 -2 26 -10 34 -46 51 -52 24 -53 50 -2 51 51 1 54 2 40 19
-18 21 -83 19 -103 -3z"/>
</g>
</svg>
